<?xml version="1.0" ?><svg id="Layer_1" style="enable-background:new 0 0 512 512;" version="1.1" viewBox="0 0 512 512" xml:space="preserve" xmlns="http://www.w3.org/2000/svg" xmlns:xlink="http://www.w3.org/1999/xlink"><g id="XMLID_345_"><path d="M256,256" id="XMLID_358_"/><g id="XMLID_347_"><path d="M256,6C117.9,6,6,117.9,6,256s111.9,250,250,250c138.1,0,250-111.9,250-250S394.1,6,256,6z M414.6,414.6    c-42.4,42.4-98.7,65.7-158.6,65.7s-116.2-23.3-158.6-65.7C55.1,372.2,31.8,315.9,31.8,256S55.1,139.8,97.4,97.4    c42.4-42.4,98.7-65.7,158.6-65.7s116.2,23.3,158.6,65.7c42.4,42.4,65.7,98.7,65.7,158.6S456.9,372.2,414.6,414.6z" id="XMLID_355_"/><path d="M400.1,111.9C361.6,73.4,310.4,52.2,256,52.2c-54.4,0-105.6,21.2-144.1,59.7    C73.4,150.4,52.2,201.6,52.2,256s21.2,105.6,59.7,144.1c38.5,38.5,89.7,59.7,144.1,59.7c54.4,0,105.6-21.2,144.1-59.7    c38.5-38.5,59.7-89.7,59.7-144.1S438.6,150.4,400.1,111.9z M243.3,76.4h25.4v6.9h-16.4v8.3h13.7v6.9h-13.7v9.7h16.4v6.9h-25.4    V76.4z M117,271.9h-9l-14.2-24.4l-0.2,0.1v24.3h-9v-38.8h9l14.2,24.4l0.2-0.1v-24.3h9V271.9z M270.4,435.6H262l-6.5-23.9h-0.2    l-6.5,23.9h-8.5l-8.9-38.8h9.1l4.7,25.2l0.2,0l6.6-25.2h6.8l6.6,25.1h0.2l4.7-25.1h9.1L270.4,435.6z M272.9,272.9L168,344    l71.1-105L344,168L272.9,272.9z M423.3,269.6c-2.7,1.9-6.2,2.9-10.6,2.9c-4.4,0-8.1-1-11.1-3.1c-3-2.1-4.5-5.3-4.4-9.8l0.1-0.2    h8.8c0,2.3,0.6,3.9,1.7,4.8c1.1,0.9,2.8,1.4,5.1,1.4c1.9,0,3.3-0.4,4.2-1.1c0.9-0.7,1.4-1.7,1.4-2.9c0-1.4-0.5-2.4-1.4-3.2    c-0.9-0.7-2.5-1.5-4.9-2.4c-4.8-1.6-8.4-3.2-10.7-5c-2.3-1.8-3.5-4.3-3.5-7.6c0-3.2,1.4-5.9,4.1-7.9c2.7-2,6.2-3,10.4-3    c4.4,0,8,1,10.7,3.1c2.7,2.1,4,5,3.9,8.7l-0.1,0.2h-8.7c0-1.8-0.5-3.2-1.5-4c-1-0.8-2.5-1.2-4.5-1.2c-1.6,0-2.9,0.4-3.9,1.2    c-0.9,0.8-1.4,1.8-1.4,3c0,1.1,0.5,2,1.5,2.7c1,0.7,2.8,1.5,5.4,2.6c4.5,1.3,7.9,3,10.2,4.9c2.3,1.9,3.5,4.5,3.5,7.9    C427.3,265,426,267.7,423.3,269.6z" id="XMLID_348_"/></g><circle cx="256" cy="256" id="XMLID_346_" r="11.4"/></g></svg>